<?xml version="1.0" encoding="UTF-8"?>
<svg id="Layer_1" data-name="Layer 1" xmlns="http://www.w3.org/2000/svg" viewBox="0 0 2750 1000">
  <defs>
    <style>
      .cls-1 {
        fill: none;
        stroke: #141210;
        stroke-miterlimit: 10;
      }

      .cls-2 {
        fill: #ff6000;
        stroke-width: 0px;
      }
    </style>
  </defs>
  <g>
    <g>
      <path class="cls-2" d="M529.68,625c-68.04,0-123.57-52.47-124.97-117.47-.03-1.39,1.11-2.53,2.5-2.53h45.02c1.34,0,2.44,1.05,2.49,2.38,1.35,37.5,34.46,67.62,74.96,67.62s73.61-30.12,74.96-67.62c.05-1.33,1.16-2.38,2.49-2.38h45.02c1.39,0,2.53,1.14,2.5,2.53-1.41,65-56.93,117.47-124.97,117.47Z"/>
      <path class="cls-2" d="M702.14,455h-45.06c-1.32,0-2.39-1.02-2.49-2.33-1.19-15.46-14.15-27.67-29.91-27.67s-28.72,12.21-29.91,27.67c-.1,1.31-1.17,2.33-2.49,2.33h-45.06c-1.42,0-2.55-1.19-2.5-2.61,1.38-42.91,36.72-77.39,79.96-77.39s78.58,34.48,79.96,77.39c.05,1.42-1.08,2.61-2.5,2.61Z"/>
      <path class="cls-2" d="M512.14,455h-45.06c-1.32,0-2.39-1.02-2.49-2.33-1.19-15.46-14.15-27.67-29.91-27.67s-28.72,12.21-29.91,27.67c-.1,1.31-1.17,2.33-2.49,2.33h-45.06c-1.42,0-2.55-1.19-2.5-2.61,1.38-42.91,36.72-77.39,79.96-77.39s78.58,34.48,79.96,77.39c.05,1.42-1.08,2.61-2.5,2.61Z"/>
    </g>
    <g>
      <path class="cls-2" d="M2295.99,560.37c-33.28,0-60.36-27.07-60.37-60.35,0-33.28,27.09-60.35,60.37-60.35s60.36,27.07,60.37,60.35c-.01,33.28-27.09,60.35-60.37,60.35M2295.99,400.76c-22.81,0-43.82,7.75-60.6,20.72v-15.06c0-1.38-1.12-2.5-2.5-2.5h-33.91c-1.38,0-2.5,1.12-2.5,2.5v241.08c0,1.38,1.12,2.5,2.5,2.5h33.91c1.38,0,2.5-1.12,2.5-2.5v-68.94c16.78,12.97,37.8,20.72,60.6,20.72,54.73,0,99.26-44.52,99.28-99.24v-.04c-.02-54.73-44.55-99.24-99.28-99.24"/>
      <path class="cls-2" d="M1064.08,518.3c0,23.18-18.86,42.08-42.04,42.12-12.51,0-24.32-5.42-32.5-15.23-6.45-7.74-9.7-17.65-9.7-27.73v-111.04c0-1.38-1.12-2.5-2.5-2.5h-33.91c-1.38,0-2.5,1.12-2.5,2.5v110.56c0,22.17,8.5,43.69,24.34,59.21,15.24,14.93,35.33,23.13,56.69,23.13h.15c44.67,0,80.89-36.21,80.89-80.89v-112.02c0-1.38-1.12-2.5-2.5-2.5h-33.91c-1.38,0-2.5,1.12-2.5,2.5v111.88Z"/>
      <path class="cls-2" d="M1252.49,481.03c0-23.18-18.86-42.08-42.04-42.12-12.51,0-24.32,5.42-32.5,15.23-6.45,7.74-9.7,17.65-9.7,27.73v111.04c0,1.38-1.12,2.5-2.5,2.5h-33.91c-1.38,0-2.5-1.12-2.5-2.5v-110.56c0-22.17,8.5-43.69,24.34-59.21,15.24-14.93,35.33-23.13,56.69-23.13h.15c44.67,0,80.88,36.21,80.88,80.88v112.02c0,1.38-1.12,2.5-2.5,2.5h-33.91c-1.38,0-2.5-1.12-2.5-2.5v-111.88Z"/>
      <path class="cls-2" d="M1442.02,481.03c0-23.18-18.86-42.08-42.04-42.12-12.51,0-24.32,5.42-32.5,15.23-6.45,7.74-9.7,17.65-9.7,27.73v111.04c0,1.38-1.12,2.5-2.5,2.5h-33.91c-1.38,0-2.5-1.12-2.5-2.5v-110.56c0-22.17,8.5-43.69,24.34-59.21,15.24-14.93,35.33-23.13,56.69-23.13h.15c44.67,0,80.89,36.21,80.89,80.89v112.02c0,1.38-1.12,2.5-2.5,2.5h-33.91c-1.38,0-2.5-1.12-2.5-2.5v-111.88Z"/>
      <path class="cls-2" d="M1670.47,569.11v-162.69c0-1.38-1.12-2.5-2.5-2.5h-33.91c-1.38,0-2.5,1.12-2.5,2.5v52.46c0,23.18-18.86,42.08-42.04,42.12-11.02-.03-21.28-4.12-29.17-11.66-8.52-8.15-13.02-19.64-13.02-31.44v-51.47c0-1.38-1.12-2.5-2.5-2.5h-33.91c-1.38,0-2.5,1.12-2.5,2.5v51.14c0,22.17,8.5,43.69,24.34,59.21,15.24,14.93,35.33,23.13,56.69,23.13h.15c15.36-.03,29.73-4.36,41.97-11.84v41.31c0,22.52-17.87,41.29-40.38,41.7-11.21.21-22.25-3.64-30.43-11.28-8.64-8.06-13.42-19.08-13.42-30.83v-4.7c0-1.38-1.12-2.5-2.5-2.5h-33.91c-1.38,0-2.5,1.12-2.5,2.5v3.39c0,22.17,8.5,43.7,24.34,59.21,15.24,14.93,35.33,23.13,56.68,23.13h.15c44.67,0,80.89-36.21,80.89-80.89Z"/>
      <path class="cls-2" d="M865.46,483c-29.74-8.17-38.56-13.72-38.56-28.76,0-11.44,9.48-20.91,24.18-20.91,12.69,0,23.76,7.58,25.41,22.91.14,1.28,1.2,2.25,2.48,2.25h35.37c1.5,0,2.66-1.31,2.49-2.81-3.97-34.61-28.51-55.69-66.07-55.69s-65.03,24.18-65.03,56.53,22.22,50.33,51.63,58.17c29.41,7.52,41.18,12.42,41.18,29.42,0,12.75-9.8,22.22-25.17,22.22s-26.79-9.3-28.87-25.6c-.16-1.24-1.22-2.17-2.47-2.17h-35.03c-1.46,0-2.61,1.25-2.5,2.71,2.98,37.73,30.99,58.72,68.53,58.72,39.87,0,66.34-22.55,66.34-58.82,0-32.36-23.86-50-53.92-58.18"/>
      <path class="cls-2" d="M1775.71,483c-29.74-8.17-38.56-13.72-38.56-28.76,0-11.44,9.48-20.91,24.18-20.91,12.69,0,23.76,7.58,25.41,22.91.14,1.28,1.2,2.25,2.48,2.25h35.37c1.5,0,2.66-1.31,2.49-2.81-3.97-34.61-28.51-55.69-66.07-55.69s-65.03,24.18-65.03,56.53,22.22,50.33,51.63,58.17c29.41,7.52,41.18,12.42,41.18,29.42,0,12.75-9.8,22.22-25.17,22.22s-26.79-9.3-28.87-25.6c-.16-1.24-1.22-2.17-2.47-2.17h-35.03c-1.46,0-2.61,1.25-2.5,2.71,2.98,37.73,30.99,58.72,68.53,58.72,39.87,0,66.34-22.55,66.34-58.82,0-32.36-23.86-50-53.92-58.18"/>
      <path class="cls-2" d="M2021.45,477.1c9.05-21.94,30.66-37.43,55.83-37.43s46.78,15.49,55.83,37.43h-111.66ZM2077.29,400.76c-54.73,0-99.26,44.51-99.29,99.24v.04c.02,54.73,44.55,99.24,99.29,99.24,30.02,0,59.51-13.76,78.86-39.02.86-1.13.58-2.76-.59-3.56l-27.93-19.09c-1.04-.71-2.47-.55-3.29.41-12.62,14.8-29.55,22.34-47.04,22.34-29.34,0-53.85-21.04-59.25-48.82h155.6c1.28,0,2.37-.96,2.49-2.24.29-3.08.44-6.17.44-9.27h0v-.04c0-7.88-.96-15.54-2.7-22.9-10.39-43.72-49.73-76.34-96.58-76.34"/>
      <path class="cls-2" d="M1962.59,553.22c0-2.1-2.4-3.23-4.06-1.95-8.07,6.21-17.59,9.13-26.24,9.14-12.51,0-24.32-5.42-32.5-15.23-6.45-7.74-9.7-17.65-9.7-27.73v-59.08h69.99c1.38,0,2.5-1.12,2.5-2.5v-29.45c0-1.38-1.12-2.5-2.5-2.5h-69.99v-58.93c0-1.38-1.12-2.5-2.5-2.5h-33.91c-1.38,0-2.5,1.12-2.5,2.5v151.98c0,22.17,8.5,43.69,24.34,59.21,15.24,14.93,35.33,23.13,56.69,23.13h.15c9.44,0,18.5-1.63,26.92-4.61,1.99-.7,3.31-2.6,3.31-4.71v-36.78Z"/>
    </g>
  </g>
  <rect class="cls-1" width="2750" height="1000"/>
</svg>